{
	"asset":{
		"generator":"Khronos glTF Blender I/O v4.3.47",
		"version":"2.0"
	},
	"scene":0,
	"scenes":[
		{
			"name":"Scene",
			"nodes":[
				0
			]
		}
	],
	"nodes":[
		{
			"mesh":0,
			"name":"Plane",
			"rotation":[
				0,
				-0.7071068286895752,
				0,
				0.7071068286895752
			]
		}
	],
	"meshes":[
		{
			"name":"Plane",
			"primitives":[
				{
					"attributes":{
						"POSITION":0,
						"NORMAL":1,
						"TEXCOORD_0":2
					},
					"indices":3
				}
			]
		}
	],
	"accessors":[
		{
			"bufferView":0,
			"componentType":5126,
			"count":10708,
			"max":[
				20,
				13.537081718444824,
				20
			],
			"min":[
				-20,
				0,
				-20
			],
			"type":"VEC3"
		},
		{
			"bufferView":1,
			"componentType":5126,
			"count":10708,
			"type":"VEC3"
		},
		{
			"bufferView":2,
			"componentType":5126,
			"count":10708,
			"type":"VEC2"
		},
		{
			"bufferView":3,
			"componentType":5123,
			"count":50100,
			"type":"SCALAR"
		}
	],
	"bufferViews":[
		{
			"buffer":0,
			"byteLength":128496,
			"byteOffset":0,
			"target":34962
		},
		{
			"buffer":0,
			"byteLength":128496,
			"byteOffset":128496,
			"target":34962
		},
		{
			"buffer":0,
			"byteLength":85664,
			"byteOffset":256992,
			"target":34962
		},
		{
			"buffer":0,
			"byteLength":100200,
			"byteOffset":342656,
			"target":34963
		}
	],
	"buffers":[
		{
			"byteLength":442856,
			"uri":"world_mesh-7acd462c35cc4adc0ea3ff323b8a4632.bin"
		}
	]
}
